<?xml version="1.0" encoding="iso-8859-1"?>
<!-- Generator: Adobe Illustrator 19.0.0, SVG Export Plug-In . SVG Version: 6.00 Build 0)  -->
<svg version="1.1" id="Capa_1" xmlns="http://www.w3.org/2000/svg" xmlns:xlink="http://www.w3.org/1999/xlink" x="0px" y="0px"
	 viewBox="0 0 416.304 416.304" style="enable-background:new 0 0 416.304 416.304;" xml:space="preserve">
<g>
	<g>
		<path d="M348.753,261.696c-0.64-0.64-1.328-1.2-2.064-1.632c-10.368-6.528-22.192-9.824-34.016-9.824
			c-16.368,0-32.72,6.24-45.2,18.72l-11.328,11.312v-152.24c0-17.6-14.4-32-32-32c-17.6,0-32,14.4-32,32v70.4
			c-5.84-7.168-14.64-11.84-24.608-11.84c-6.928,0-13.312,2.272-18.544,6.032l-68.912,39.888
			c-9.52,5.568-15.936,15.792-15.936,27.584v52.624c0,57.216,46.368,103.584,103.584,103.584c27.712,0,52.816-10.944,71.392-28.672
			l0.016,0.144l1.776-1.776c0.032-0.032,0.064-0.064,0.08-0.08l107.744-107.76C353.297,273.6,353.297,266.256,348.753,261.696z
			 M228.081,376.032c-16.4,15.632-37.84,24.24-60.352,24.24c-48.288,0.032-87.584-39.28-87.584-87.568V260.08
			c0-5.632,2.992-10.736,8.016-13.664l70.144-40.784c1.92-1.376,5.088-3.04,9.216-3.04c6.4,0,10.4,3.728,12.224,5.952l28.4,34.784
			V128.032c0-8.816,7.184-16,16-16c8.816,0,16,7.184,16,16v159.952c0,6.832,4.32,12.56,10.352,14.816
			c2.544,0.96,5.408,0.336,7.328-1.584l20.944-20.944c9.056-9.056,21.088-14.032,33.888-14.032c7.216,0,14.272,1.6,20.704,4.672
			L228.081,376.032z"/>
	</g>
</g>
<g>
	<g>
		<rect x="216.145" width="16" height="64"/>
	</g>
</g>
<g>
	<g>
		<rect x="148.257" y="28.105" transform="matrix(0.7071 -0.7071 0.7071 0.7071 3.2661 128.0946)" width="16" height="63.999"/>
	</g>
</g>
<g>
	<g>
		<rect x="96.145" y="120" width="64" height="16"/>
	</g>
</g>
<g>
	<g>
		<rect x="260.011" y="52.126" transform="matrix(0.7071 -0.7071 0.7071 0.7071 43.0125 224.093)" width="63.999" height="16"/>
	</g>
</g>
<g>
	<g>
		<rect x="288.145" y="120" width="64" height="16"/>
	</g>
</g>
<g>
</g>
<g>
</g>
<g>
</g>
<g>
</g>
<g>
</g>
<g>
</g>
<g>
</g>
<g>
</g>
<g>
</g>
<g>
</g>
<g>
</g>
<g>
</g>
<g>
</g>
<g>
</g>
<g>
</g>
</svg>
